<svg width="298" height="167" viewBox="0 0 298 167" fill="none" xmlns="http://www.w3.org/2000/svg">
<g clip-path="url(#clip0_840_19726)">
<g clip-path="url(#clip1_840_19726)">
<rect width="298" height="167" transform="translate(-1)" fill="#070707"/>
<mask id="mask0_840_19726" style="mask-type:alpha" maskUnits="userSpaceOnUse" x="-190" y="19" width="676" height="130">
<rect x="-189.879" y="19.2627" width="675.76" height="129.475" fill="url(#paint0_radial_840_19726)"/>
</mask>
<g mask="url(#mask0_840_19726)">
<rect width="2.5" height="2.5" transform="matrix(1 0 0 -1 5 27.5)" fill="#070707"/>
<rect width="2.5" height="2.5" transform="matrix(1 0 0 -1 15.5 27.5)" fill="#070707"/>
<rect width="2.5" height="2.5" transform="matrix(1 0 0 -1 26 27.5)" fill="#070707"/>
<rect width="2.5" height="2.5" transform="matrix(1 0 0 -1 36.5 27.5)" fill="#070707"/>
<rect width="2.5" height="2.5" transform="matrix(1 0 0 -1 47 27.5)" fill="#070707"/>
<rect width="2.5" height="2.5" transform="matrix(1 0 0 -1 57.5 27.5)" fill="#070707"/>
<rect opacity="0.3" width="2.5" height="2.5" transform="matrix(1 0 0 -1 68 27.5)" fill="#666666"/>
<rect opacity="0.3" width="2.5" height="2.5" transform="matrix(1 0 0 -1 78.5 27.5)" fill="#666666"/>
<rect width="2.5" height="2.5" transform="matrix(1 0 0 -1 89 27.5)" fill="#070707"/>
<rect opacity="0.3" width="2.5" height="2.5" transform="matrix(1 0 0 -1 99.5 27.5)" fill="#666666"/>
<rect width="2.5" height="2.5" transform="matrix(1 0 0 -1 110 27.5)" fill="#070707"/>
<rect width="2.5" height="2.5" transform="matrix(1 0 0 -1 120.5 27.5)" fill="#070707"/>
<rect opacity="0.3" width="2.5" height="2.5" transform="matrix(1 0 0 -1 131 27.5)" fill="#666666"/>
<rect opacity="0.3" width="2.5" height="2.5" transform="matrix(1 0 0 -1 141.5 27.5)" fill="#666666"/>
<rect width="2.5" height="2.5" transform="matrix(1 0 0 -1 152 27.5)" fill="#070707"/>
<rect width="2.5" height="2.5" transform="matrix(1 0 0 -1 162.5 27.5)" fill="#070707"/>
<rect width="2.5" height="2.5" transform="matrix(1 0 0 -1 173 27.5)" fill="#070707"/>
<rect width="2.5" height="2.5" transform="matrix(1 0 0 -1 183.5 27.5)" fill="#070707"/>
<rect opacity="0.3" width="2.5" height="2.5" transform="matrix(1 0 0 -1 194 27.5)" fill="#666666"/>
<rect width="2.5" height="2.5" transform="matrix(1 0 0 -1 204.5 27.5)" fill="#070707"/>
<rect opacity="0.3" width="2.5" height="2.5" transform="matrix(1 0 0 -1 215 27.5)" fill="#666666"/>
<rect width="2.5" height="2.5" transform="matrix(1 0 0 -1 225.5 27.5)" fill="#070707"/>
<rect opacity="0.3" width="2.5" height="2.5" transform="matrix(1 0 0 -1 236 27.5)" fill="#666666"/>
<rect width="2.5" height="2.5" transform="matrix(1 0 0 -1 246.5 27.5)" fill="#070707"/>
<rect width="2.5" height="2.5" transform="matrix(1 0 0 -1 257 27.5)" fill="#070707"/>
<rect width="2.5" height="2.5" transform="matrix(1 0 0 -1 267.5 27.5)" fill="#070707"/>
<rect width="2.5" height="2.5" transform="matrix(1 0 0 -1 278 27.5)" fill="#070707"/>
<rect width="2.5" height="2.5" transform="matrix(1 0 0 -1 288.5 27.5)" fill="#070707"/>
<rect width="2.5" height="2.5" transform="matrix(1 0 0 -1 5 38)" fill="#070707"/>
<rect width="2.5" height="2.5" transform="matrix(1 0 0 -1 15.5 38)" fill="#070707"/>
<rect width="2.5" height="2.5" transform="matrix(1 0 0 -1 26 38)" fill="#070707"/>
<rect width="2.5" height="2.5" transform="matrix(1 0 0 -1 36.5 38)" fill="#070707"/>
<rect opacity="0.3" width="2.5" height="2.5" transform="matrix(1 0 0 -1 47 38)" fill="#666666"/>
<rect opacity="0.3" width="2.5" height="2.5" transform="matrix(1 0 0 -1 57.5 38)" fill="#666666"/>
<rect opacity="0.3" width="2.5" height="2.5" transform="matrix(1 0 0 -1 68 38)" fill="#666666"/>
<rect width="2.5" height="2.5" transform="matrix(1 0 0 -1 78.5 38)" fill="#070707"/>
<rect width="2.5" height="2.5" transform="matrix(1 0 0 -1 89 38)" fill="#070707"/>
<rect width="2.5" height="2.5" transform="matrix(1 0 0 -1 99.5 38)" fill="#070707"/>
<rect width="2.5" height="2.5" transform="matrix(1 0 0 -1 110 38)" fill="#070707"/>
<rect opacity="0.3" width="2.5" height="2.5" transform="matrix(1 0 0 -1 120.5 38)" fill="#666666"/>
<rect width="2.5" height="2.5" transform="matrix(1 0 0 -1 131 38)" fill="#070707"/>
<rect width="2.5" height="2.5" transform="matrix(1 0 0 -1 141.5 38)" fill="#070707"/>
<rect width="2.5" height="2.5" transform="matrix(1 0 0 -1 152 38)" fill="#070707"/>
<rect opacity="0.3" x="165" y="38" width="2.5" height="2.5" transform="rotate(180 165 38)" fill="#666666"/>
<rect width="2.5" height="2.5" transform="matrix(1 0 0 -1 173 38)" fill="#070707"/>
<rect width="2.5" height="2.5" transform="matrix(1 0 0 -1 183.5 38)" fill="#070707"/>
<rect opacity="0.3" width="2.5" height="2.5" transform="matrix(1 0 0 -1 194 38)" fill="#666666"/>
<rect width="2.5" height="2.5" transform="matrix(1 0 0 -1 204.5 38)" fill="#070707"/>
<rect width="2.5" height="2.5" transform="matrix(1 0 0 -1 215 38)" fill="#070707"/>
<rect width="2.5" height="2.5" transform="matrix(1 0 0 -1 225.5 38)" fill="#070707"/>
<rect width="2.5" height="2.5" transform="matrix(1 0 0 -1 236 38)" fill="#070707"/>
<rect opacity="0.3" width="2.5" height="2.5" transform="matrix(1 0 0 -1 246.5 38)" fill="#666666"/>
<rect width="2.5" height="2.5" transform="matrix(1 0 0 -1 257 38)" fill="#070707"/>
<rect width="2.5" height="2.5" transform="matrix(1 0 0 -1 267.5 38)" fill="#070707"/>
<rect opacity="0.3" x="280.5" y="38" width="2.5" height="2.5" transform="rotate(180 280.5 38)" fill="#666666"/>
<rect width="2.5" height="2.5" transform="matrix(1 0 0 -1 288.5 38)" fill="#070707"/>
<rect x="7.5" y="48.5" width="2.5" height="2.5" transform="rotate(180 7.5 48.5)" fill="#070707"/>
<rect width="2.5" height="2.5" transform="matrix(1 0 0 -1 15.5 48.5)" fill="#070707"/>
<rect width="2.5" height="2.5" transform="matrix(1 0 0 -1 26 48.5)" fill="#070707"/>
<rect width="2.5" height="2.5" transform="matrix(1 0 0 -1 36.5 48.5)" fill="#070707"/>
<rect width="2.5" height="2.5" transform="matrix(1 0 0 -1 47 48.5)" fill="#070707"/>
<rect width="2.5" height="2.5" transform="matrix(1 0 0 -1 57.5 48.5)" fill="#070707"/>
<rect opacity="0.3" width="2.5" height="2.5" transform="matrix(1 0 0 -1 68 48.5)" fill="#666666"/>
<rect opacity="0.3" width="2.5" height="2.5" transform="matrix(1 0 0 -1 78.5 48.5)" fill="#666666"/>
<rect width="2.5" height="2.5" transform="matrix(1 0 0 -1 89 48.5)" fill="#070707"/>
<rect opacity="0.3" width="2.5" height="2.5" transform="matrix(1 0 0 -1 99.5 48.5)" fill="#666666"/>
<rect opacity="0.3" width="2.5" height="2.5" transform="matrix(1 0 0 -1 110 48.5)" fill="#666666"/>
<rect opacity="0.3" width="2.5" height="2.5" transform="matrix(1 0 0 -1 120.5 48.5)" fill="#666666"/>
<rect opacity="0.3" width="2.5" height="2.5" transform="matrix(1 0 0 -1 131 48.5)" fill="#666666"/>
<rect opacity="0.3" width="2.5" height="2.5" transform="matrix(1 0 0 -1 141.5 48.5)" fill="#666666"/>
<rect width="2.5" height="2.5" transform="matrix(1 0 0 -1 152 48.5)" fill="#070707"/>
<rect width="2.5" height="2.5" transform="matrix(1 0 0 -1 162.5 48.5)" fill="#070707"/>
<rect width="2.5" height="2.5" transform="matrix(1 0 0 -1 173 48.5)" fill="#070707"/>
<rect width="2.5" height="2.5" transform="matrix(1 0 0 -1 183.5 48.5)" fill="#070707"/>
<rect width="2.5" height="2.5" transform="matrix(1 0 0 -1 194 48.5)" fill="#070707"/>
<rect width="2.5" height="2.5" transform="matrix(1 0 0 -1 204.5 48.5)" fill="#070707"/>
<rect width="2.5" height="2.5" transform="matrix(1 0 0 -1 215 48.5)" fill="#070707"/>
<rect width="2.5" height="2.5" transform="matrix(1 0 0 -1 225.5 48.5)" fill="#070707"/>
<rect opacity="0.3" width="2.5" height="2.5" transform="matrix(1 0 0 -1 236 48.5)" fill="#666666"/>
<rect width="2.5" height="2.5" transform="matrix(1 0 0 -1 246.5 48.5)" fill="#070707"/>
<rect width="2.5" height="2.5" transform="matrix(1 0 0 -1 257 48.5)" fill="#070707"/>
<rect width="2.5" height="2.5" transform="matrix(1 0 0 -1 267.5 48.5)" fill="#070707"/>
<rect opacity="0.3" width="2.5" height="2.5" transform="matrix(1 0 0 -1 278 48.5)" fill="#666666"/>
<rect opacity="0.3" width="2.5" height="2.5" transform="matrix(1 0 0 -1 288.5 48.5)" fill="#666666"/>
<rect x="7.5" y="59" width="2.5" height="2.5" transform="rotate(180 7.5 59)" fill="#070707"/>
<rect opacity="0.3" width="2.5" height="2.5" transform="matrix(1 0 0 -1 15.5 59)" fill="#666666"/>
<rect opacity="0.3" width="2.5" height="2.5" transform="matrix(1 0 0 -1 26 59)" fill="#666666"/>
<rect opacity="0.3" width="2.5" height="2.5" transform="matrix(1 0 0 -1 36.5 59)" fill="#666666"/>
<rect opacity="0.3" width="2.5" height="2.5" transform="matrix(1 0 0 -1 47 59)" fill="#666666"/>
<rect width="2.5" height="2.5" transform="matrix(1 0 0 -1 57.5 59)" fill="#070707"/>
<rect width="2.5" height="2.5" transform="matrix(1 0 0 -1 68 59)" fill="#070707"/>
<rect opacity="0.3" width="2.5" height="2.5" transform="matrix(1 0 0 -1 78.5 59)" fill="#666666"/>
<rect width="2.5" height="2.5" transform="matrix(1 0 0 -1 89 59)" fill="#070707"/>
<rect width="2.5" height="2.5" transform="matrix(1 0 0 -1 99.5 59)" fill="#070707"/>
<rect opacity="0.3" width="2.5" height="2.5" transform="matrix(1 0 0 -1 110 59)" fill="#666666"/>
<rect width="2.5" height="2.5" transform="matrix(1 0 0 -1 120.5 59)" fill="#070707"/>
<rect opacity="0.3" width="2.5" height="2.5" transform="matrix(1 0 0 -1 131 59)" fill="#666666"/>
<rect width="2.5" height="2.5" transform="matrix(1 0 0 -1 141.5 59)" fill="#070707"/>
<rect opacity="0.3" width="2.5" height="2.5" transform="matrix(1 0 0 -1 152 59)" fill="#666666"/>
<rect opacity="0.3" x="165" y="59" width="2.5" height="2.5" transform="rotate(180 165 59)" fill="#666666"/>
<rect width="2.5" height="2.5" transform="matrix(1 0 0 -1 173 59)" fill="#070707"/>
<rect opacity="0.3" width="2.5" height="2.5" transform="matrix(1 0 0 -1 183.5 59)" fill="#666666"/>
<rect opacity="0.3" width="2.5" height="2.5" transform="matrix(1 0 0 -1 194 59)" fill="#666666"/>
<rect width="2.5" height="2.5" transform="matrix(1 0 0 -1 204.5 59)" fill="#070707"/>
<rect opacity="0.3" width="2.5" height="2.5" transform="matrix(1 0 0 -1 215 59)" fill="#666666"/>
<rect width="2.5" height="2.5" transform="matrix(1 0 0 -1 225.5 59)" fill="#070707"/>
<rect opacity="0.3" width="2.5" height="2.5" transform="matrix(1 0 0 -1 236 59)" fill="#666666"/>
<rect width="2.5" height="2.5" transform="matrix(1 0 0 -1 246.5 59)" fill="#070707"/>
<rect width="2.5" height="2.5" transform="matrix(1 0 0 -1 257 59)" fill="#070707"/>
<rect width="2.5" height="2.5" transform="matrix(1 0 0 -1 267.5 59)" fill="#070707"/>
<rect width="2.5" height="2.5" transform="matrix(1 0 0 -1 278 59)" fill="#070707"/>
<rect width="2.5" height="2.5" transform="matrix(1 0 0 -1 288.5 59)" fill="#070707"/>
<rect width="2.5" height="2.5" transform="matrix(1 0 0 -1 5 69.5)" fill="#070707"/>
<rect width="2.5" height="2.5" transform="matrix(1 0 0 -1 15.5 69.5)" fill="#070707"/>
<rect opacity="0.3" width="2.5" height="2.5" transform="matrix(1 0 0 -1 26 69.5)" fill="#666666"/>
<rect width="2.5" height="2.5" transform="matrix(1 0 0 -1 36.5 69.5)" fill="#070707"/>
<rect opacity="0.3" width="2.5" height="2.5" transform="matrix(1 0 0 -1 47 69.5)" fill="#666666"/>
<rect width="2.5" height="2.5" transform="matrix(1 0 0 -1 57.5 69.5)" fill="#070707"/>
<rect opacity="0.3" x="70.5" y="69.5" width="2.5" height="2.5" transform="rotate(180 70.5 69.5)" fill="#666666"/>
<rect x="81" y="69.5" width="2.5" height="2.5" transform="rotate(180 81 69.5)" fill="white"/>
<rect x="91.5" y="69.5" width="2.5" height="2.5" transform="rotate(180 91.5 69.5)" fill="#070707"/>
<rect width="2.5" height="2.5" transform="matrix(1 0 0 -1 99.5 69.5)" fill="white"/>
<rect width="2.5" height="2.5" transform="matrix(1 0 0 -1 110 69.5)" fill="#070707"/>
<rect opacity="0.3" width="2.5" height="2.5" transform="matrix(1 0 0 -1 120.5 69.5)" fill="#666666"/>
<rect width="2.5" height="2.5" transform="matrix(1 0 0 -1 131 69.5)" fill="white"/>
<rect width="2.5" height="2.5" transform="matrix(1 0 0 -1 141.5 69.5)" fill="white"/>
<rect width="2.5" height="2.5" transform="matrix(1 0 0 -1 152 69.5)" fill="#070707"/>
<rect width="2.5" height="2.5" transform="matrix(1 0 0 -1 162.5 69.5)" fill="#070707"/>
<rect width="2.5" height="2.5" transform="matrix(1 0 0 -1 173 69.5)" fill="white"/>
<rect width="2.5" height="2.5" transform="matrix(1 0 0 -1 183.5 69.5)" fill="white"/>
<rect opacity="0.3" width="2.5" height="2.5" transform="matrix(1 0 0 -1 194 69.5)" fill="#666666"/>
<rect width="2.5" height="2.5" transform="matrix(1 0 0 -1 204.5 69.5)" fill="white"/>
<rect width="2.5" height="2.5" transform="matrix(1 0 0 -1 215 69.5)" fill="#070707"/>
<rect opacity="0.3" width="2.5" height="2.5" transform="matrix(1 0 0 -1 225.5 69.5)" fill="#666666"/>
<rect opacity="0.3" width="2.5" height="2.5" transform="matrix(1 0 0 -1 236 69.5)" fill="#666666"/>
<rect width="2.5" height="2.5" transform="matrix(1 0 0 -1 246.5 69.5)" fill="#070707"/>
<rect opacity="0.3" width="2.5" height="2.5" transform="matrix(1 0 0 -1 257 69.5)" fill="#666666"/>
<rect width="2.5" height="2.5" transform="matrix(1 0 0 -1 267.5 69.5)" fill="#070707"/>
<rect opacity="0.3" width="2.5" height="2.5" transform="matrix(1 0 0 -1 278 69.5)" fill="#666666"/>
<rect opacity="0.3" width="2.5" height="2.5" transform="matrix(1 0 0 -1 288.5 69.5)" fill="#666666"/>
<rect opacity="0.3" x="5" y="77.5" width="2.5" height="2.5" fill="#666666"/>
<rect x="15.5" y="77.5" width="2.5" height="2.5" fill="#070707"/>
<rect width="2.5" height="2.5" transform="matrix(1 0 0 -1 26 80)" fill="white"/>
<rect width="2.5" height="2.5" transform="matrix(1 0 0 -1 36.5 80)" fill="#070707"/>
<rect width="2.5" height="2.5" transform="matrix(1 0 0 -1 47 80)" fill="white"/>
<rect opacity="0.3" width="2.5" height="2.5" transform="matrix(1 0 0 -1 57.5 80)" fill="#666666"/>
<rect width="2.5" height="2.5" transform="matrix(1 0 0 -1 68 80)" fill="#070707"/>
<rect width="2.5" height="2.5" transform="matrix(1 0 0 -1 78.5 80)" fill="white"/>
<rect width="2.5" height="2.5" transform="matrix(1 0 0 -1 89 80)" fill="white"/>
<rect opacity="0.3" width="2.5" height="2.5" transform="matrix(1 0 0 -1 99.5 80)" fill="#666666"/>
<rect x="112.5" y="80" width="2.5" height="2.5" transform="rotate(180 112.5 80)" fill="white"/>
<rect width="2.5" height="2.5" transform="matrix(1 0 0 -1 120.5 80)" fill="#070707"/>
<rect width="2.5" height="2.5" transform="matrix(1 0 0 -1 131 80)" fill="#070707"/>
<rect width="2.5" height="2.5" transform="matrix(1 0 0 -1 141.5 80)" fill="white"/>
<rect width="2.5" height="2.5" transform="matrix(1 0 0 -1 152 80)" fill="white"/>
<rect x="162.5" y="77.5" width="2.5" height="2.5" fill="white"/>
<rect opacity="0.3" x="173" y="77.5" width="2.5" height="2.5" fill="#666666"/>
<rect x="183.5" y="77.5" width="2.5" height="2.5" fill="#070707"/>
<rect opacity="0.3" x="194" y="77.5" width="2.5" height="2.5" fill="#666666"/>
<rect x="204.5" y="77.5" width="2.5" height="2.5" fill="white"/>
<rect opacity="0.3" width="2.5" height="2.5" transform="matrix(1 0 0 -1 215 80)" fill="#666666"/>
<rect x="225.5" y="77.5" width="2.5" height="2.5" fill="#070707"/>
<rect x="236" y="77.5" width="2.5" height="2.5" fill="white"/>
<rect x="246.5" y="77.5" width="2.5" height="2.5" fill="white"/>
<rect x="257" y="77.5" width="2.5" height="2.5" fill="#070707"/>
<rect x="267.5" y="77.5" width="2.5" height="2.5" fill="white"/>
<rect x="278" y="77.5" width="2.5" height="2.5" fill="#070707"/>
<rect opacity="0.3" x="288.5" y="77.5" width="2.5" height="2.5" fill="#666666"/>
<rect x="5" y="88" width="2.5" height="2.5" fill="#070707"/>
<rect opacity="0.3" x="15.5" y="88" width="2.5" height="2.5" fill="#666666"/>
<rect x="26" y="88" width="2.5" height="2.5" fill="#070707"/>
<rect x="36.5" y="88" width="2.5" height="2.5" fill="white"/>
<rect x="47" y="88" width="2.5" height="2.5" fill="#070707"/>
<rect opacity="0.3" x="57.5" y="88" width="2.5" height="2.5" fill="#666666"/>
<rect x="68" y="88" width="2.5" height="2.5" fill="white"/>
<rect opacity="0.3" x="78.5" y="88" width="2.5" height="2.5" fill="#666666"/>
<rect x="89" y="88" width="2.5" height="2.5" fill="#070707"/>
<rect opacity="0.3" x="99.5" y="88" width="2.5" height="2.5" fill="#666666"/>
<rect x="110" y="88" width="2.5" height="2.5" fill="white"/>
<rect x="120.5" y="88" width="2.5" height="2.5" fill="#070707"/>
<rect x="131" y="88" width="2.5" height="2.5" fill="#070707"/>
<rect x="141.5" y="88" width="2.5" height="2.5" fill="white"/>
<rect x="152" y="88" width="2.5" height="2.5" fill="#070707"/>
<rect x="162.5" y="88" width="2.5" height="2.5" fill="#070707"/>
<rect x="173" y="88" width="2.5" height="2.5" fill="white"/>
<rect opacity="0.3" x="183.5" y="88" width="2.5" height="2.5" fill="#666666"/>
<rect x="194" y="88" width="2.5" height="2.5" fill="#070707"/>
<rect opacity="0.3" x="204.5" y="88" width="2.5" height="2.5" fill="#666666"/>
<rect x="215" y="88" width="2.5" height="2.5" fill="white"/>
<rect x="225.5" y="88" width="2.5" height="2.5" fill="white"/>
<rect x="236" y="88" width="2.5" height="2.5" fill="#070707"/>
<rect x="246.5" y="88" width="2.5" height="2.5" fill="#070707"/>
<rect x="257" y="88" width="2.5" height="2.5" fill="white"/>
<rect x="267.5" y="88" width="2.5" height="2.5" fill="#070707"/>
<rect opacity="0.3" x="278" y="88" width="2.5" height="2.5" fill="#666666"/>
<rect opacity="0.3" x="288.5" y="88" width="2.5" height="2.5" fill="#666666"/>
<rect opacity="0.3" x="5" y="98.5" width="2.5" height="2.5" fill="#666666"/>
<rect x="15.5" y="98.5" width="2.5" height="2.5" fill="#070707"/>
<rect opacity="0.3" x="26" y="98.5" width="2.5" height="2.5" fill="#666666"/>
<rect x="36.5" y="98.5" width="2.5" height="2.5" fill="#070707"/>
<rect x="47" y="98.5" width="2.5" height="2.5" fill="white"/>
<rect x="57.5" y="98.5" width="2.5" height="2.5" fill="#070707"/>
<rect x="68" y="98.5" width="2.5" height="2.5" fill="white"/>
<rect opacity="0.3" x="78.5" y="98.5" width="2.5" height="2.5" fill="#666666"/>
<rect x="89" y="98.5" width="2.5" height="2.5" fill="white"/>
<rect opacity="0.3" width="2.5" height="2.5" transform="matrix(1 0 0 -1 99.5 101)" fill="#666666"/>
<rect opacity="0.3" width="2.5" height="2.5" transform="matrix(1 0 0 -1 110 101)" fill="#666666"/>
<rect width="2.5" height="2.5" transform="matrix(1 0 0 -1 120.5 101)" fill="white"/>
<rect width="2.5" height="2.5" transform="matrix(-1 0 0 1 133.5 98.5)" fill="white"/>
<rect width="2.5" height="2.5" transform="matrix(-1 0 0 1 144 98.5)" fill="white"/>
<rect opacity="0.3" width="2.5" height="2.5" transform="matrix(-1 0 0 1 154.5 98.5)" fill="#666666"/>
<rect width="2.5" height="2.5" transform="matrix(-1 0 0 1 165 98.5)" fill="white"/>
<rect x="173" y="98.5" width="2.5" height="2.5" fill="#070707"/>
<rect x="183.5" y="98.5" width="2.5" height="2.5" fill="white"/>
<rect x="194" y="98.5" width="2.5" height="2.5" fill="white"/>
<rect opacity="0.3" x="204.5" y="98.5" width="2.5" height="2.5" fill="#666666"/>
<rect x="215" y="98.5" width="2.5" height="2.5" fill="white"/>
<rect x="225.5" y="98.5" width="2.5" height="2.5" fill="#070707"/>
<rect x="236" y="98.5" width="2.5" height="2.5" fill="white"/>
<rect opacity="0.3" x="246.5" y="98.5" width="2.5" height="2.5" fill="#666666"/>
<rect opacity="0.3" x="257" y="98.5" width="2.5" height="2.5" fill="#666666"/>
<rect opacity="0.3" x="267.5" y="98.5" width="2.5" height="2.5" fill="#666666"/>
<rect x="278" y="98.5" width="2.5" height="2.5" fill="#070707"/>
<rect x="288.5" y="98.5" width="2.5" height="2.5" fill="#070707"/>
<rect x="5" y="109" width="2.5" height="2.5" fill="#070707"/>
<rect opacity="0.3" x="15.5" y="109" width="2.5" height="2.5" fill="#666666"/>
<rect opacity="0.3" x="26" y="109" width="2.5" height="2.5" fill="#666666"/>
<rect opacity="0.3" x="36.5" y="109" width="2.5" height="2.5" fill="#666666"/>
<rect x="47" y="109" width="2.5" height="2.5" fill="#070707"/>
<rect opacity="0.3" x="57.5" y="109" width="2.5" height="2.5" fill="#666666"/>
<rect opacity="0.3" x="68" y="109" width="2.5" height="2.5" fill="#666666"/>
<rect x="78.5" y="109" width="2.5" height="2.5" fill="#070707"/>
<rect opacity="0.3" x="89" y="109" width="2.5" height="2.5" fill="#666666"/>
<rect x="99.5" y="109" width="2.5" height="2.5" fill="#070707"/>
<rect x="110" y="109" width="2.5" height="2.5" fill="#070707"/>
<rect x="120.5" y="109" width="2.5" height="2.5" fill="#070707"/>
<rect opacity="0.3" x="131" y="109" width="2.5" height="2.5" fill="#666666"/>
<rect opacity="0.3" x="141.5" y="109" width="2.5" height="2.5" fill="#666666"/>
<rect x="152" y="109" width="2.5" height="2.5" fill="#070707"/>
<rect x="162.5" y="109" width="2.5" height="2.5" fill="#070707"/>
<rect x="173" y="109" width="2.5" height="2.5" fill="#070707"/>
<rect x="183.5" y="109" width="2.5" height="2.5" fill="#070707"/>
<rect x="194" y="109" width="2.5" height="2.5" fill="#070707"/>
<rect x="204.5" y="109" width="2.5" height="2.5" fill="#070707"/>
<rect x="215" y="109" width="2.5" height="2.5" fill="#070707"/>
<rect x="225.5" y="109" width="2.5" height="2.5" fill="#070707"/>
<rect x="236" y="109" width="2.5" height="2.5" fill="#070707"/>
<rect x="246.5" y="109" width="2.5" height="2.5" fill="#070707"/>
<rect x="257" y="109" width="2.5" height="2.5" fill="#070707"/>
<rect opacity="0.3" x="267.5" y="109" width="2.5" height="2.5" fill="#666666"/>
<rect x="278" y="109" width="2.5" height="2.5" fill="#070707"/>
<rect x="288.5" y="109" width="2.5" height="2.5" fill="#070707"/>
<rect opacity="0.3" x="5" y="119.5" width="2.5" height="2.5" fill="#666666"/>
<rect opacity="0.3" x="15.5" y="119.5" width="2.5" height="2.5" fill="#666666"/>
<rect opacity="0.3" x="26" y="119.5" width="2.5" height="2.5" fill="#666666"/>
<rect x="36.5" y="119.5" width="2.5" height="2.5" fill="#070707"/>
<rect opacity="0.3" x="47" y="119.5" width="2.5" height="2.5" fill="#666666"/>
<rect x="57.5" y="119.5" width="2.5" height="2.5" fill="#070707"/>
<rect x="68" y="119.5" width="2.5" height="2.5" fill="#070707"/>
<rect width="2.5" height="2.5" transform="matrix(-1 0 0 1 81 119.5)" fill="#070707"/>
<rect x="89" y="119.5" width="2.5" height="2.5" fill="#070707"/>
<rect x="99.5" y="119.5" width="2.5" height="2.5" fill="#070707"/>
<rect x="110" y="119.5" width="2.5" height="2.5" fill="#070707"/>
<rect x="120.5" y="119.5" width="2.5" height="2.5" fill="#070707"/>
<rect x="131" y="119.5" width="2.5" height="2.5" fill="#070707"/>
<rect x="141.5" y="119.5" width="2.5" height="2.5" fill="#070707"/>
<rect x="152" y="119.5" width="2.5" height="2.5" fill="#070707"/>
<rect x="162.5" y="119.5" width="2.5" height="2.5" fill="#070707"/>
<rect x="173" y="119.5" width="2.5" height="2.5" fill="#070707"/>
<rect x="183.5" y="119.5" width="2.5" height="2.5" fill="#070707"/>
<rect x="194" y="119.5" width="2.5" height="2.5" fill="#070707"/>
<rect opacity="0.3" x="204.5" y="119.5" width="2.5" height="2.5" fill="#666666"/>
<rect x="215" y="119.5" width="2.5" height="2.5" fill="#070707"/>
<rect opacity="0.3" x="225.5" y="119.5" width="2.5" height="2.5" fill="#666666"/>
<rect x="236" y="119.5" width="2.5" height="2.5" fill="#070707"/>
<rect opacity="0.3" x="246.5" y="119.5" width="2.5" height="2.5" fill="#666666"/>
<rect x="257" y="119.5" width="2.5" height="2.5" fill="#070707"/>
<rect opacity="0.3" x="267.5" y="119.5" width="2.5" height="2.5" fill="#666666"/>
<rect opacity="0.3" x="278" y="119.5" width="2.5" height="2.5" fill="#666666"/>
<rect x="288.5" y="119.5" width="2.5" height="2.5" fill="#070707"/>
<rect x="5" y="130" width="2.5" height="2.5" fill="#070707"/>
<rect x="15.5" y="130" width="2.5" height="2.5" fill="#070707"/>
<rect opacity="0.3" x="26" y="130" width="2.5" height="2.5" fill="#666666"/>
<rect x="36.5" y="130" width="2.5" height="2.5" fill="#070707"/>
<rect opacity="0.3" x="47" y="130" width="2.5" height="2.5" fill="#666666"/>
<rect opacity="0.3" x="57.5" y="130" width="2.5" height="2.5" fill="#666666"/>
<rect opacity="0.3" x="68" y="130" width="2.5" height="2.5" fill="#666666"/>
<rect x="78.5" y="130" width="2.5" height="2.5" fill="#070707"/>
<rect x="89" y="130" width="2.5" height="2.5" fill="#070707"/>
<rect x="99.5" y="130" width="2.5" height="2.5" fill="#070707"/>
<rect opacity="0.3" x="110" y="130" width="2.5" height="2.5" fill="#666666"/>
<rect opacity="0.3" x="120.5" y="130" width="2.5" height="2.5" fill="#666666"/>
<rect opacity="0.3" x="131" y="130" width="2.5" height="2.5" fill="#666666"/>
<rect x="141.5" y="130" width="2.5" height="2.5" fill="#070707"/>
<rect opacity="0.3" x="152" y="130" width="2.5" height="2.5" fill="#666666"/>
<rect x="162.5" y="130" width="2.5" height="2.5" fill="#070707"/>
<rect opacity="0.3" x="173" y="130" width="2.5" height="2.5" fill="#666666"/>
<rect x="183.5" y="130" width="2.5" height="2.5" fill="#070707"/>
<rect x="194" y="130" width="2.5" height="2.5" fill="#070707"/>
<rect x="204.5" y="130" width="2.5" height="2.5" fill="#070707"/>
<rect x="215" y="130" width="2.5" height="2.5" fill="#070707"/>
<rect x="225.5" y="130" width="2.5" height="2.5" fill="#070707"/>
<rect x="236" y="130" width="2.5" height="2.5" fill="#070707"/>
<rect x="246.5" y="130" width="2.5" height="2.5" fill="#070707"/>
<rect x="257" y="130" width="2.5" height="2.5" fill="#070707"/>
<rect x="267.5" y="130" width="2.5" height="2.5" fill="#070707"/>
<rect x="278" y="130" width="2.5" height="2.5" fill="#070707"/>
<rect x="288.5" y="130" width="2.5" height="2.5" fill="#070707"/>
<rect x="5" y="140.5" width="2.5" height="2.5" fill="#070707"/>
<rect x="15.5" y="140.5" width="2.5" height="2.5" fill="#070707"/>
<rect x="26" y="140.5" width="2.5" height="2.5" fill="#070707"/>
<rect x="36.5" y="140.5" width="2.5" height="2.5" fill="#070707"/>
<rect x="47" y="140.5" width="2.5" height="2.5" fill="#070707"/>
<rect x="57.5" y="140.5" width="2.5" height="2.5" fill="#070707"/>
<rect x="68" y="140.5" width="2.5" height="2.5" fill="#070707"/>
<rect x="78.5" y="140.5" width="2.5" height="2.5" fill="#070707"/>
<rect x="89" y="140.5" width="2.5" height="2.5" fill="#070707"/>
<rect opacity="0.3" x="99.5" y="140.5" width="2.5" height="2.5" fill="#666666"/>
<rect x="110" y="140.5" width="2.5" height="2.5" fill="#070707"/>
<rect opacity="0.3" x="120.5" y="140.5" width="2.5" height="2.5" fill="#666666"/>
<rect x="131" y="140.5" width="2.5" height="2.5" fill="#070707"/>
<rect opacity="0.3" x="141.5" y="140.5" width="2.5" height="2.5" fill="#666666"/>
<rect opacity="0.3" x="152" y="140.5" width="2.5" height="2.5" fill="#666666"/>
<rect opacity="0.3" x="162.5" y="140.5" width="2.5" height="2.5" fill="#666666"/>
<rect x="173" y="140.5" width="2.5" height="2.5" fill="#070707"/>
<rect x="183.5" y="140.5" width="2.5" height="2.5" fill="#070707"/>
<rect opacity="0.3" x="194" y="140.5" width="2.5" height="2.5" fill="#666666"/>
<rect x="204.5" y="140.5" width="2.5" height="2.5" fill="#070707"/>
<rect opacity="0.3" x="215" y="140.5" width="2.5" height="2.5" fill="#666666"/>
<rect opacity="0.3" x="225.5" y="140.5" width="2.5" height="2.5" fill="#666666"/>
<rect x="236" y="140.5" width="2.5" height="2.5" fill="#070707"/>
<rect x="246.5" y="140.5" width="2.5" height="2.5" fill="#070707"/>
<rect x="257" y="140.5" width="2.5" height="2.5" fill="#070707"/>
<rect x="267.5" y="140.5" width="2.5" height="2.5" fill="#070707"/>
<rect x="278" y="140.5" width="2.5" height="2.5" fill="#070707"/>
<rect opacity="0.3" x="288.5" y="140.5" width="2.5" height="2.5" fill="#666666"/>
</g>
</g>
<rect x="119.5" y="54.5" width="59" height="59" rx="7.5" fill="#131313"/>
<rect x="119.5" y="54.5" width="59" height="59" rx="7.5" stroke="#1F1F1F"/>
<g filter="url(#filter0_d_840_19726)">
<path d="M157.166 84C157.166 85.6108 153.51 86.9167 149 86.9167C144.489 86.9167 140.833 85.6108 140.833 84M140.833 77.5833V91.5833C140.833 93.1942 144.489 94.5 149 94.5C153.51 94.5 157.166 93.1942 157.166 91.5833V77.5833M157.166 76.4167C157.166 78.0275 153.51 79.3333 149 79.3333C144.489 79.3333 140.833 78.0275 140.833 76.4167C140.833 74.8058 144.489 73.5 149 73.5C153.51 73.5 157.166 74.8058 157.166 76.4167Z" stroke="white" stroke-width="1.5" stroke-linecap="square"/>
</g>
</g>
<defs>
<filter id="filter0_d_840_19726" x="127.8" y="62.8" width="42.4" height="42.4" filterUnits="userSpaceOnUse" color-interpolation-filters="sRGB">
<feFlood flood-opacity="0" result="BackgroundImageFix"/>
<feColorMatrix in="SourceAlpha" type="matrix" values="0 0 0 0 0 0 0 0 0 0 0 0 0 0 0 0 0 0 127 0" result="hardAlpha"/>
<feOffset/>
<feGaussianBlur stdDeviation="3.6"/>
<feColorMatrix type="matrix" values="0 0 0 0 1 0 0 0 0 1 0 0 0 0 1 0 0 0 0.57 0"/>
<feBlend mode="normal" in2="BackgroundImageFix" result="effect1_dropShadow_840_19726"/>
<feBlend mode="normal" in="SourceGraphic" in2="effect1_dropShadow_840_19726" result="shape"/>
</filter>
<radialGradient id="paint0_radial_840_19726" cx="0" cy="0" r="1" gradientUnits="userSpaceOnUse" gradientTransform="translate(148.001 84.0002) scale(299.053 120.316)">
<stop stop-color="#737373"/>
<stop offset="1" stop-color="#D9D9D9" stop-opacity="0"/>
</radialGradient>
<clipPath id="clip0_840_19726">
<rect width="298" height="167" fill="white"/>
</clipPath>
<clipPath id="clip1_840_19726">
<rect width="298" height="167" fill="white" transform="translate(-1)"/>
</clipPath>
</defs>
</svg>
